<mxfile host="app.diagrams.net" modified="2023-06-17T06:08:11.720Z" agent="Mozilla/5.0 (Macintosh; Intel Mac OS X 10_15_7) AppleWebKit/537.36 (KHTML, like Gecko) Chrome/114.0.0.0 Safari/537.36" etag="tLeYYHMkqT2Ebk-GgkP6" version="21.4.0" type="github">
  <diagram name="Page-1" id="74e2e168-ea6b-b213-b513-2b3c1d86103e">
    <mxGraphModel dx="2294" dy="798" grid="1" gridSize="10" guides="1" tooltips="1" connect="1" arrows="1" fold="1" page="1" pageScale="1" pageWidth="1100" pageHeight="850" background="none" math="0" shadow="0">
      <root>
        <mxCell id="0" />
        <mxCell id="1" parent="0" />
        <mxCell id="77e6c97f196da883-1" value="Pool" style="swimlane;html=1;childLayout=stackLayout;startSize=20;rounded=0;shadow=0;labelBackgroundColor=none;strokeWidth=1;fontFamily=Verdana;fontSize=8;align=center;" parent="1" vertex="1">
          <mxGeometry x="-560" y="30" width="1520" height="760" as="geometry" />
        </mxCell>
        <mxCell id="77e6c97f196da883-2" value="客户端" style="swimlane;html=1;startSize=20;" parent="77e6c97f196da883-1" vertex="1">
          <mxGeometry y="20" width="780" height="740" as="geometry" />
        </mxCell>
        <mxCell id="77e6c97f196da883-8" value="发起请求" style="rounded=1;whiteSpace=wrap;html=1;shadow=0;labelBackgroundColor=none;strokeWidth=1;fontFamily=Verdana;fontSize=8;align=center;" parent="77e6c97f196da883-2" vertex="1">
          <mxGeometry x="30" y="40" width="100" height="60" as="geometry" />
        </mxCell>
        <mxCell id="77e6c97f196da883-10" value="" style="rounded=1;whiteSpace=wrap;html=1;shadow=0;labelBackgroundColor=none;strokeWidth=1;fontFamily=Verdana;fontSize=8;align=center;" parent="77e6c97f196da883-2" vertex="1">
          <mxGeometry x="30" y="560" width="100" height="60" as="geometry" />
        </mxCell>
        <mxCell id="CmLD-RSIHt0abfhdRo1E-33" value="" style="edgeStyle=orthogonalEdgeStyle;rounded=0;orthogonalLoop=1;jettySize=auto;html=1;" edge="1" parent="77e6c97f196da883-2" source="CmLD-RSIHt0abfhdRo1E-17" target="CmLD-RSIHt0abfhdRo1E-32">
          <mxGeometry relative="1" as="geometry" />
        </mxCell>
        <mxCell id="CmLD-RSIHt0abfhdRo1E-17" value="重定向到登录页" style="whiteSpace=wrap;html=1;fontSize=8;fontFamily=Verdana;rounded=1;shadow=0;labelBackgroundColor=none;strokeWidth=1;" vertex="1" parent="77e6c97f196da883-2">
          <mxGeometry x="20" y="260" width="120" height="60" as="geometry" />
        </mxCell>
        <mxCell id="CmLD-RSIHt0abfhdRo1E-21" value="正常响应" style="whiteSpace=wrap;html=1;fontSize=8;fontFamily=Verdana;rounded=1;shadow=0;labelBackgroundColor=none;strokeWidth=1;" vertex="1" parent="77e6c97f196da883-2">
          <mxGeometry x="20" y="140" width="120" height="60" as="geometry" />
        </mxCell>
        <mxCell id="CmLD-RSIHt0abfhdRo1E-32" value="发起登录请求" style="whiteSpace=wrap;html=1;fontSize=8;fontFamily=Verdana;rounded=1;shadow=0;labelBackgroundColor=none;strokeWidth=1;" vertex="1" parent="77e6c97f196da883-2">
          <mxGeometry x="20" y="370" width="120" height="60" as="geometry" />
        </mxCell>
        <mxCell id="77e6c97f196da883-3" value="业务系统1" style="swimlane;html=1;startSize=20;" parent="77e6c97f196da883-2" vertex="1">
          <mxGeometry x="260" width="520" height="740" as="geometry" />
        </mxCell>
        <mxCell id="CmLD-RSIHt0abfhdRo1E-2" value="" style="edgeStyle=orthogonalEdgeStyle;rounded=0;orthogonalLoop=1;jettySize=auto;html=1;" edge="1" parent="77e6c97f196da883-3" source="77e6c97f196da883-11" target="CmLD-RSIHt0abfhdRo1E-1">
          <mxGeometry relative="1" as="geometry" />
        </mxCell>
        <mxCell id="77e6c97f196da883-11" value="校验token" style="rounded=1;whiteSpace=wrap;html=1;shadow=0;labelBackgroundColor=none;strokeWidth=1;fontFamily=Verdana;fontSize=8;align=center;" parent="77e6c97f196da883-3" vertex="1">
          <mxGeometry x="30" y="40" width="100" height="60" as="geometry" />
        </mxCell>
        <mxCell id="CmLD-RSIHt0abfhdRo1E-8" value="无效" style="edgeStyle=orthogonalEdgeStyle;rounded=0;orthogonalLoop=1;jettySize=auto;html=1;" edge="1" parent="77e6c97f196da883-3" source="CmLD-RSIHt0abfhdRo1E-1" target="CmLD-RSIHt0abfhdRo1E-7">
          <mxGeometry relative="1" as="geometry" />
        </mxCell>
        <mxCell id="CmLD-RSIHt0abfhdRo1E-1" value="是否有效" style="rhombus;whiteSpace=wrap;html=1;fontSize=8;fontFamily=Verdana;rounded=1;shadow=0;labelBackgroundColor=none;strokeWidth=1;" vertex="1" parent="77e6c97f196da883-3">
          <mxGeometry x="40" y="130" width="80" height="80" as="geometry" />
        </mxCell>
        <mxCell id="CmLD-RSIHt0abfhdRo1E-7" value="返回重定向" style="whiteSpace=wrap;html=1;fontSize=8;fontFamily=Verdana;rounded=1;shadow=0;labelBackgroundColor=none;strokeWidth=1;" vertex="1" parent="77e6c97f196da883-3">
          <mxGeometry x="20" y="260" width="120" height="60" as="geometry" />
        </mxCell>
        <mxCell id="77e6c97f196da883-26" style="edgeStyle=orthogonalEdgeStyle;rounded=1;html=1;labelBackgroundColor=none;startArrow=none;startFill=0;startSize=5;endArrow=classicThin;endFill=1;endSize=5;jettySize=auto;orthogonalLoop=1;strokeWidth=1;fontFamily=Verdana;fontSize=8" parent="77e6c97f196da883-2" source="77e6c97f196da883-8" target="77e6c97f196da883-11" edge="1">
          <mxGeometry relative="1" as="geometry" />
        </mxCell>
        <mxCell id="CmLD-RSIHt0abfhdRo1E-22" value="有效" style="edgeStyle=orthogonalEdgeStyle;rounded=0;orthogonalLoop=1;jettySize=auto;html=1;" edge="1" parent="77e6c97f196da883-2" source="CmLD-RSIHt0abfhdRo1E-1" target="CmLD-RSIHt0abfhdRo1E-21">
          <mxGeometry relative="1" as="geometry" />
        </mxCell>
        <mxCell id="CmLD-RSIHt0abfhdRo1E-18" value="" style="edgeStyle=orthogonalEdgeStyle;rounded=0;orthogonalLoop=1;jettySize=auto;html=1;" edge="1" parent="77e6c97f196da883-2" source="CmLD-RSIHt0abfhdRo1E-7" target="CmLD-RSIHt0abfhdRo1E-17">
          <mxGeometry relative="1" as="geometry" />
        </mxCell>
        <mxCell id="77e6c97f196da883-33" style="edgeStyle=orthogonalEdgeStyle;rounded=1;html=1;labelBackgroundColor=none;startArrow=none;startFill=0;startSize=5;endArrow=classicThin;endFill=1;endSize=5;jettySize=auto;orthogonalLoop=1;strokeWidth=1;fontFamily=Verdana;fontSize=8" parent="77e6c97f196da883-1" source="77e6c97f196da883-13" target="77e6c97f196da883-15" edge="1">
          <mxGeometry relative="1" as="geometry" />
        </mxCell>
        <mxCell id="77e6c97f196da883-39" style="edgeStyle=orthogonalEdgeStyle;rounded=1;html=1;labelBackgroundColor=none;startArrow=none;startFill=0;startSize=5;endArrow=classicThin;endFill=1;endSize=5;jettySize=auto;orthogonalLoop=1;strokeWidth=1;fontFamily=Verdana;fontSize=8" parent="77e6c97f196da883-1" source="77e6c97f196da883-20" edge="1">
          <mxGeometry relative="1" as="geometry">
            <mxPoint x="670" y="690" as="targetPoint" />
          </mxGeometry>
        </mxCell>
        <mxCell id="107ba76e4e335f99-1" style="edgeStyle=orthogonalEdgeStyle;rounded=1;html=1;labelBackgroundColor=none;startArrow=none;startFill=0;startSize=5;endArrow=classicThin;endFill=1;endSize=5;jettySize=auto;orthogonalLoop=1;strokeWidth=1;fontFamily=Verdana;fontSize=8" parent="77e6c97f196da883-1" source="77e6c97f196da883-17" edge="1">
          <mxGeometry relative="1" as="geometry">
            <mxPoint x="670" y="450" as="targetPoint" />
          </mxGeometry>
        </mxCell>
        <mxCell id="107ba76e4e335f99-2" style="edgeStyle=orthogonalEdgeStyle;rounded=1;html=1;labelBackgroundColor=none;startArrow=none;startFill=0;startSize=5;endArrow=classicThin;endFill=1;endSize=5;jettySize=auto;orthogonalLoop=1;strokeWidth=1;fontFamily=Verdana;fontSize=8" parent="77e6c97f196da883-1" target="77e6c97f196da883-14" edge="1">
          <mxGeometry relative="1" as="geometry">
            <Array as="points">
              <mxPoint x="660" y="610" />
              <mxPoint x="660" y="550" />
              <mxPoint x="400" y="550" />
            </Array>
            <mxPoint x="670" y="610" as="sourcePoint" />
          </mxGeometry>
        </mxCell>
        <mxCell id="107ba76e4e335f99-3" style="edgeStyle=orthogonalEdgeStyle;rounded=1;html=1;labelBackgroundColor=none;startArrow=none;startFill=0;startSize=5;endArrow=classicThin;endFill=1;endSize=5;jettySize=auto;orthogonalLoop=1;strokeColor=#000000;strokeWidth=1;fontFamily=Verdana;fontSize=8;fontColor=#000000;" parent="77e6c97f196da883-1" target="77e6c97f196da883-19" edge="1">
          <mxGeometry relative="1" as="geometry">
            <mxPoint x="670" y="610" as="sourcePoint" />
          </mxGeometry>
        </mxCell>
        <mxCell id="107ba76e4e335f99-4" style="edgeStyle=orthogonalEdgeStyle;rounded=1;html=1;labelBackgroundColor=none;startArrow=none;startFill=0;startSize=5;endArrow=classicThin;endFill=1;endSize=5;jettySize=auto;orthogonalLoop=1;strokeWidth=1;fontFamily=Verdana;fontSize=8" parent="77e6c97f196da883-1" target="77e6c97f196da883-10" edge="1">
          <mxGeometry relative="1" as="geometry">
            <Array as="points">
              <mxPoint x="660" y="610" />
              <mxPoint x="660" y="550" />
              <mxPoint x="80" y="550" />
            </Array>
            <mxPoint x="670" y="610" as="sourcePoint" />
          </mxGeometry>
        </mxCell>
        <mxCell id="107ba76e4e335f99-5" style="edgeStyle=orthogonalEdgeStyle;rounded=1;html=1;labelBackgroundColor=none;startArrow=none;startFill=0;startSize=5;endArrow=classicThin;endFill=1;endSize=5;jettySize=auto;orthogonalLoop=1;strokeWidth=1;fontFamily=Verdana;fontSize=8" parent="77e6c97f196da883-1" source="77e6c97f196da883-10" target="77e6c97f196da883-19" edge="1">
          <mxGeometry relative="1" as="geometry">
            <Array as="points">
              <mxPoint x="80" y="650" />
              <mxPoint x="490" y="650" />
              <mxPoint x="490" y="610" />
            </Array>
          </mxGeometry>
        </mxCell>
        <mxCell id="107ba76e4e335f99-6" style="edgeStyle=orthogonalEdgeStyle;rounded=1;html=1;labelBackgroundColor=none;startArrow=none;startFill=0;startSize=5;endArrow=classicThin;endFill=1;endSize=5;jettySize=auto;orthogonalLoop=1;strokeWidth=1;fontFamily=Verdana;fontSize=8" parent="77e6c97f196da883-1" source="77e6c97f196da883-14" target="77e6c97f196da883-19" edge="1">
          <mxGeometry relative="1" as="geometry" />
        </mxCell>
        <mxCell id="77e6c97f196da883-4" value="业务系统2" style="swimlane;html=1;startSize=20;" parent="77e6c97f196da883-1" vertex="1">
          <mxGeometry x="780" y="20" width="160" height="740" as="geometry" />
        </mxCell>
        <mxCell id="77e6c97f196da883-12" value="" style="rounded=1;whiteSpace=wrap;html=1;shadow=0;labelBackgroundColor=none;strokeWidth=1;fontFamily=Verdana;fontSize=8;align=center;" parent="77e6c97f196da883-4" vertex="1">
          <mxGeometry x="30" y="155" width="100" height="60" as="geometry" />
        </mxCell>
        <mxCell id="77e6c97f196da883-13" value="" style="rhombus;whiteSpace=wrap;html=1;rounded=0;shadow=0;labelBackgroundColor=none;strokeWidth=1;fontFamily=Verdana;fontSize=8;align=center;" parent="77e6c97f196da883-4" vertex="1">
          <mxGeometry x="40" y="240" width="80" height="60" as="geometry" />
        </mxCell>
        <mxCell id="77e6c97f196da883-14" value="" style="rounded=1;whiteSpace=wrap;html=1;shadow=0;labelBackgroundColor=none;strokeWidth=1;fontFamily=Verdana;fontSize=8;align=center;" parent="77e6c97f196da883-4" vertex="1">
          <mxGeometry x="30" y="560" width="100" height="60" as="geometry" />
        </mxCell>
        <mxCell id="77e6c97f196da883-29" style="edgeStyle=orthogonalEdgeStyle;rounded=1;html=1;labelBackgroundColor=none;startArrow=none;startFill=0;startSize=5;endArrow=classicThin;endFill=1;endSize=5;jettySize=auto;orthogonalLoop=1;strokeWidth=1;fontFamily=Verdana;fontSize=8" parent="77e6c97f196da883-4" source="77e6c97f196da883-12" target="77e6c97f196da883-13" edge="1">
          <mxGeometry relative="1" as="geometry" />
        </mxCell>
        <mxCell id="77e6c97f196da883-5" value="auth" style="swimlane;html=1;startSize=20;" parent="77e6c97f196da883-1" vertex="1">
          <mxGeometry x="940" y="20" width="160" height="740" as="geometry" />
        </mxCell>
        <mxCell id="77e6c97f196da883-15" value="" style="rounded=1;whiteSpace=wrap;html=1;shadow=0;labelBackgroundColor=none;strokeWidth=1;fontFamily=Verdana;fontSize=8;align=center;" parent="77e6c97f196da883-5" vertex="1">
          <mxGeometry x="30" y="240" width="100" height="60" as="geometry" />
        </mxCell>
        <mxCell id="77e6c97f196da883-16" value="" style="rhombus;whiteSpace=wrap;html=1;rounded=0;shadow=0;labelBackgroundColor=none;strokeWidth=1;fontFamily=Verdana;fontSize=8;align=center;" parent="77e6c97f196da883-5" vertex="1">
          <mxGeometry x="40" y="320" width="80" height="60" as="geometry" />
        </mxCell>
        <mxCell id="77e6c97f196da883-17" value="" style="rounded=1;whiteSpace=wrap;html=1;shadow=0;labelBackgroundColor=none;strokeWidth=1;fontFamily=Verdana;fontSize=8;align=center;" parent="77e6c97f196da883-5" vertex="1">
          <mxGeometry x="30" y="400" width="100" height="60" as="geometry" />
        </mxCell>
        <mxCell id="77e6c97f196da883-19" value="" style="rounded=1;whiteSpace=wrap;html=1;shadow=0;labelBackgroundColor=none;strokeWidth=1;fontFamily=Verdana;fontSize=8;align=center;" parent="77e6c97f196da883-5" vertex="1">
          <mxGeometry x="30" y="560" width="100" height="60" as="geometry" />
        </mxCell>
        <mxCell id="77e6c97f196da883-20" value="" style="rhombus;whiteSpace=wrap;html=1;rounded=0;shadow=0;labelBackgroundColor=none;strokeWidth=1;fontFamily=Verdana;fontSize=8;align=center;" parent="77e6c97f196da883-5" vertex="1">
          <mxGeometry x="40" y="640" width="80" height="60" as="geometry" />
        </mxCell>
        <mxCell id="77e6c97f196da883-34" style="edgeStyle=orthogonalEdgeStyle;rounded=1;html=1;labelBackgroundColor=none;startArrow=none;startFill=0;startSize=5;endArrow=classicThin;endFill=1;endSize=5;jettySize=auto;orthogonalLoop=1;strokeColor=#000000;strokeWidth=1;fontFamily=Verdana;fontSize=8;fontColor=#000000;" parent="77e6c97f196da883-5" source="77e6c97f196da883-15" target="77e6c97f196da883-16" edge="1">
          <mxGeometry relative="1" as="geometry" />
        </mxCell>
        <mxCell id="77e6c97f196da883-35" style="edgeStyle=orthogonalEdgeStyle;rounded=1;html=1;labelBackgroundColor=none;startArrow=none;startFill=0;startSize=5;endArrow=classicThin;endFill=1;endSize=5;jettySize=auto;orthogonalLoop=1;strokeWidth=1;fontFamily=Verdana;fontSize=8" parent="77e6c97f196da883-5" source="77e6c97f196da883-16" target="77e6c97f196da883-17" edge="1">
          <mxGeometry relative="1" as="geometry" />
        </mxCell>
        <mxCell id="77e6c97f196da883-36" style="edgeStyle=orthogonalEdgeStyle;rounded=1;html=1;labelBackgroundColor=none;startArrow=none;startFill=0;startSize=5;endArrow=classicThin;endFill=1;endSize=5;jettySize=auto;orthogonalLoop=1;strokeWidth=1;fontFamily=Verdana;fontSize=8" parent="77e6c97f196da883-5" source="77e6c97f196da883-19" target="77e6c97f196da883-20" edge="1">
          <mxGeometry relative="1" as="geometry" />
        </mxCell>
      </root>
    </mxGraphModel>
  </diagram>
</mxfile>
